# xmcd
#
# Track frame offsets:
#       150
#       4950
#       21562
#       38362
#       55987
#       71849
#       94311
#       112011
#       132861
#       151836
#       168448
#       182923
#       201204
#       235666
#       257266
#       274094
#       296415
#       316252
#       335077
#       353227
#
# Disc length: 4730 seconds
#
# Revision: 0
# Processed by: cddbd v1.5.2PL0 Copyright (c) Steve Scherf et al.
# Submitted via: WaveLab 6.11
#
DISCID=24127814
DTITLE=Basstard - Zwiespalt: Transparent
DYEAR=2012
DGENRE=HipHop
TTITLE0=Intro
TTITLE1=Transparent
TTITLE2=Ein Märchen
TTITLE3=Schwarz Weiss
TTITLE4=Traumfänger
TTITLE5=Wir sind die
TTITLE6=Dreh durch
TTITLE7=Atem
TTITLE8=Drama
TTITLE9=Wie Feuer
TTITLE10=Was ist...
TTITLE11=Bruder
TTITLE12=Berlin Crime und die Posse
TTITLE13=Mein Reich
TTITLE14=Diese Waffen mit Vork
TTITLE15=HaHaHaHaaa
TTITLE16=Stumme Zeugen mit 4.9.0 Friedhof Chiller
TTITLE17=2012 Apokalypse mit Dystrust, Medizin Mann und Orgi
TTITLE18=Weiss (Rock Version)
TTITLE19=Outro
EXTD=
EXTT0=
EXTT1=
EXTT2=
EXTT3=
EXTT4=
EXTT5=
EXTT6=
EXTT7=
EXTT8=
EXTT9=
EXTT10=
EXTT11=
EXTT12=
EXTT13=
EXTT14=
EXTT15=
EXTT16=
EXTT17=
EXTT18=
EXTT19=
PLAYORDER=
